<?xml version="1.0" encoding="UTF-8" standalone="no"?>
<!-- Generator: Adobe Illustrator 19.0.0, SVG Export Plug-In . SVG Version: 6.00 Build 0)  -->

<svg
   xmlns:dc="http://purl.org/dc/elements/1.1/"
   xmlns:cc="http://creativecommons.org/ns#"
   xmlns:rdf="http://www.w3.org/1999/02/22-rdf-syntax-ns#"
   xmlns:svg="http://www.w3.org/2000/svg"
   xmlns="http://www.w3.org/2000/svg"
   xmlns:sodipodi="http://sodipodi.sourceforge.net/DTD/sodipodi-0.dtd"
   xmlns:inkscape="http://www.inkscape.org/namespaces/inkscape"
   version="1.1"
   id="Layer_1"
   x="0px"
   y="0px"
   viewBox="0 0 512 512"
   style="enable-background:new 0 0 512 512;"
   xml:space="preserve"
   sodipodi:docname="mangaconv.svg"
   inkscape:version="0.92.2 5c3e80d, 2017-08-06"><metadata
     id="metadata45"><rdf:RDF><cc:Work
         rdf:about=""><dc:format>image/svg+xml</dc:format><dc:type
           rdf:resource="http://purl.org/dc/dcmitype/StillImage" /><dc:title></dc:title></cc:Work></rdf:RDF></metadata><defs
     id="defs43" /><sodipodi:namedview
     pagecolor="#ffffff"
     bordercolor="#666666"
     borderopacity="1"
     objecttolerance="10"
     gridtolerance="10"
     guidetolerance="10"
     inkscape:pageopacity="0"
     inkscape:pageshadow="2"
     inkscape:window-width="1920"
     inkscape:window-height="1006"
     id="namedview41"
     showgrid="false"
     inkscape:zoom="0.4609375"
     inkscape:cx="255.83165"
     inkscape:cy="256.56061"
     inkscape:window-x="0"
     inkscape:window-y="0"
     inkscape:window-maximized="1"
     inkscape:current-layer="Layer_1" /><path
     style="fill:#e0e0e2;stroke-width:0.75067312"
     d="m 354.26186,74.175102 h -1.94125 C 337.22984,36.025144 302.04203,9.2696533 261.08757,4.9652938 257.25012,4.5614317 253.36689,4.3399831 249.44086,4.3399831 c -59.31593,0 -107.87847,46.9170679 -110.53059,105.5889169 -39.515438,5.6173 -69.995016,39.67233 -69.995016,80.71463 0,44.95406 36.572036,81.5276 81.527596,81.5276 h 93.1743 V 254.70072 237.2303 126.62913 c 0,-9.6484 7.82201,-17.47041 17.47042,-17.47041 9.64839,0 17.47041,7.82201 17.47041,17.47041 v 110.60193 17.47041 17.47041 h 75.70388 c 54.58744,-7.5e-4 98.99801,-44.41132 98.99801,-98.99877 0,-54.58744 -44.41057,-98.998008 -98.99801,-98.998008 z"
     id="path2"
     inkscape:connector-curvature="0" /><path
     style="fill:#c6c5ca;stroke-width:0.75067312"
     d="m 249.44086,4.3399831 c -59.31593,0 -107.87847,46.9170679 -110.53059,105.5889169 -39.515438,5.6173 -69.995016,39.67233 -69.995016,80.71463 0,44.95406 36.572036,81.5276 81.527596,81.5276 h 93.1743 V 254.70072 237.2303 126.62913 c 0,-9.6484 7.82201,-17.47041 17.47042,-17.47041 V 4.9652938 C 257.25012,4.5614317 253.36689,4.3399831 249.44086,4.3399831 Z"
     id="path4"
     inkscape:connector-curvature="0" /><g
     id="g10"
     transform="translate(6)" /><g
     id="g12"
     transform="translate(6)" /><g
     id="g14"
     transform="translate(6)" /><g
     id="g16"
     transform="translate(6)" /><g
     id="g18"
     transform="translate(6)" /><g
     id="g20"
     transform="translate(6)" /><g
     id="g22"
     transform="translate(6)" /><g
     id="g24"
     transform="translate(6)" /><g
     id="g26"
     transform="translate(6)" /><g
     id="g28"
     transform="translate(6)" /><g
     id="g30"
     transform="translate(6)" /><g
     id="g32"
     transform="translate(6)" /><g
     id="g34"
     transform="translate(6)" /><g
     id="g36"
     transform="translate(6)" /><g
     id="g38"
     transform="translate(6)" /><g
     id="g144"
     transform="matrix(0.75067309,0,0,0.75067309,85.114334,150.76567)"><g
       id="g75"><path
         id="path47"
         d="m 128.762,44.977 h -22.5 L 106.239,395 H 363.762 V 44.999 L 158.761,44.977 c -4.14,0 -7.496,-3.355 -7.499,-7.495 l -15,-10e-4 c -0.002,4.14 -3.359,7.496 -7.5,7.496 z M 235.012,370 h -96.25 c -4.142,0 -7.5,-3.358 -7.5,-7.5 0,-4.142 3.358,-7.5 7.5,-7.5 h 96.25 c 4.143,0 7.5,3.358 7.5,7.5 0,4.142 -3.357,7.5 -7.5,7.5 z m 96.25,-35.628 h -192.5 c -4.142,0 -7.5,-3.358 -7.5,-7.5 0,-4.142 3.358,-7.5 7.5,-7.5 h 192.5 c 4.143,0 7.5,3.358 7.5,7.5 0,4.142 -3.357,7.5 -7.5,7.5 z m 0,-35.628 h -192.5 c -4.142,0 -7.5,-3.358 -7.5,-7.5 0,-4.142 3.358,-7.5 7.5,-7.5 h 192.5 c 4.143,0 7.5,3.358 7.5,7.5 0,4.142 -3.357,7.5 -7.5,7.5 z m 0,-35.628 h -192.5 c -4.142,0 -7.5,-3.358 -7.5,-7.5 0,-4.142 3.358,-7.5 7.5,-7.5 h 192.5 c 4.143,0 7.5,3.358 7.5,7.5 0,4.142 -3.357,7.5 -7.5,7.5 z m 0,-35.628 h -192.5 c -4.142,0 -7.5,-3.358 -7.5,-7.5 0,-4.142 3.358,-7.5 7.5,-7.5 h 192.5 c 4.143,0 7.5,3.358 7.5,7.5 0,4.142 -3.357,7.5 -7.5,7.5 z m 0,-35.628 h -192.5 c -4.142,0 -7.5,-3.358 -7.5,-7.5 0,-4.142 3.358,-7.5 7.5,-7.5 h 192.5 c 4.143,0 7.5,3.358 7.5,7.5 0,4.142 -3.357,7.5 -7.5,7.5 z m -200,-43.128 c 0,-4.142 3.358,-7.5 7.5,-7.5 h 96.25 c 4.143,0 7.5,3.358 7.5,7.5 0,4.142 -3.357,7.5 -7.5,7.5 h -96.25 c -4.142,0 -7.5,-3.357 -7.5,-7.5 z m 200,-28.128 h -192.5 c -4.142,0 -7.5,-3.358 -7.5,-7.5 0,-4.142 3.358,-7.5 7.5,-7.5 h 192.5 c 4.143,0 7.5,3.358 7.5,7.5 0,4.142 -3.357,7.5 -7.5,7.5 z m 0,-50.627 c 4.143,0 7.5,3.358 7.5,7.5 0,4.142 -3.357,7.5 -7.5,7.5 h -192.5 c -4.142,0 -7.5,-3.358 -7.5,-7.5 0,-4.142 3.358,-7.5 7.5,-7.5 z"
         style="fill:#ffffff"
         inkscape:connector-curvature="0" /><path
         id="path49"
         d="M 371.25,15 H 98.75 c -12.407,0 -22.5,10.093 -22.5,22.5 v 395 c 0,12.407 10.093,22.5 22.5,22.5 h 272.5 c 12.406,0 22.5,-10.093 22.5,-22.5 V 37.5 C 393.75,25.093 383.656,15 371.25,15 Z M 250,440 h -30 c -4.142,0 -7.5,-3.358 -7.5,-7.5 0,-4.142 3.358,-7.5 7.5,-7.5 h 30 c 4.143,0 7.5,3.358 7.5,7.5 0,4.142 -3.357,7.5 -7.5,7.5 z m 128.762,-37.5 c 0,4.142 -3.357,7.5 -7.5,7.5 H 98.738 c -1.989,0 -3.897,-0.79 -5.304,-2.197 -1.406,-1.407 -2.196,-3.314 -2.196,-5.304 L 91.262,37.476 c 0,-4.142 3.358,-7.5 7.5,-7.5 h 30 c 4.142,0 7.5,3.358 7.5,7.5 0,0.004 15,0.005 15,0.005 0,-4.148 3.358,-7.505 7.5,-7.505 0.001,0 212.501,0.023 212.501,0.023 4.142,0 7.499,3.358 7.499,7.5 z"
         style="fill:#185f8d"
         inkscape:connector-curvature="0" /><path
         id="path51"
         d="M 371.25,0 H 98.75 C 78.072,0 61.25,16.822 61.25,37.5 v 395 c 0,20.678 16.822,37.5 37.5,37.5 h 272.5 c 20.678,0 37.5,-16.822 37.5,-37.5 V 37.5 C 408.75,16.822 391.928,0 371.25,0 Z m 22.5,432.5 c 0,12.407 -10.094,22.5 -22.5,22.5 H 98.75 c -12.407,0 -22.5,-10.093 -22.5,-22.5 V 37.5 C 76.25,25.093 86.343,15 98.75,15 h 272.5 c 12.406,0 22.5,10.093 22.5,22.5 z"
         style="fill:#082947"
         inkscape:connector-curvature="0" /><path
         id="path53"
         d="m 371.263,30 -212.5,-0.023 c -4.143,0 -7.5,3.357 -7.501,7.499 0.003,4.146 3.359,7.5 7.499,7.501 l 205.001,0.022 V 395 H 106.239 l 0.023,-350.023 h 22.5 c 4.141,0 7.498,-3.356 7.5,-7.496 0,-4.146 -3.358,-7.504 -7.5,-7.504 h -30 c -4.142,0 -7.5,3.357 -7.5,7.5 L 91.238,402.5 c 0,1.989 0.79,3.897 2.196,5.304 1.407,1.407 3.314,2.197 5.304,2.197 h 272.524 c 4.143,0 7.5,-3.358 7.5,-7.5 v -365 c 0,-4.143 -3.357,-7.501 -7.499,-7.501 z"
         style="fill:#082947"
         inkscape:connector-curvature="0" /><path
         id="path55"
         d="m 250,425 h -30 c -4.142,0 -7.5,3.358 -7.5,7.5 0,4.142 3.358,7.5 7.5,7.5 h 30 c 4.143,0 7.5,-3.358 7.5,-7.5 0,-4.142 -3.357,-7.5 -7.5,-7.5 z"
         style="fill:#082947"
         inkscape:connector-curvature="0" /><path
         id="path57"
         d="m 131.262,77.477 c 0,4.142 3.358,7.5 7.5,7.5 h 192.5 c 4.143,0 7.5,-3.358 7.5,-7.5 0,-4.142 -3.357,-7.5 -7.5,-7.5 h -192.5 c -4.142,0 -7.5,3.357 -7.5,7.5 z"
         style="fill:#082947"
         inkscape:connector-curvature="0" /><path
         id="path59"
         d="m 331.262,105.604 h -192.5 c -4.142,0 -7.5,3.358 -7.5,7.5 0,4.142 3.358,7.5 7.5,7.5 h 192.5 c 4.143,0 7.5,-3.358 7.5,-7.5 0,-4.142 -3.357,-7.5 -7.5,-7.5 z"
         style="fill:#082947"
         inkscape:connector-curvature="0" /><path
         id="path61"
         d="m 138.762,156.232 h 96.25 c 4.143,0 7.5,-3.358 7.5,-7.5 0,-4.142 -3.357,-7.5 -7.5,-7.5 h -96.25 c -4.142,0 -7.5,3.358 -7.5,7.5 0,4.142 3.358,7.5 7.5,7.5 z"
         style="fill:#082947"
         inkscape:connector-curvature="0" /><path
         id="path63"
         d="m 331.262,176.86 h -192.5 c -4.142,0 -7.5,3.358 -7.5,7.5 0,4.142 3.358,7.5 7.5,7.5 h 192.5 c 4.143,0 7.5,-3.358 7.5,-7.5 0,-4.142 -3.357,-7.5 -7.5,-7.5 z"
         style="fill:#082947"
         inkscape:connector-curvature="0" /><path
         id="path65"
         d="m 331.262,212.488 h -192.5 c -4.142,0 -7.5,3.358 -7.5,7.5 0,4.142 3.358,7.5 7.5,7.5 h 192.5 c 4.143,0 7.5,-3.358 7.5,-7.5 0,-4.142 -3.357,-7.5 -7.5,-7.5 z"
         style="fill:#082947"
         inkscape:connector-curvature="0" /><path
         id="path67"
         d="m 331.262,248.116 h -192.5 c -4.142,0 -7.5,3.358 -7.5,7.5 0,4.142 3.358,7.5 7.5,7.5 h 192.5 c 4.143,0 7.5,-3.358 7.5,-7.5 0,-4.142 -3.357,-7.5 -7.5,-7.5 z"
         style="fill:#082947"
         inkscape:connector-curvature="0" /><path
         id="path69"
         d="m 331.262,283.744 h -192.5 c -4.142,0 -7.5,3.358 -7.5,7.5 0,4.142 3.358,7.5 7.5,7.5 h 192.5 c 4.143,0 7.5,-3.358 7.5,-7.5 0,-4.142 -3.357,-7.5 -7.5,-7.5 z"
         style="fill:#082947"
         inkscape:connector-curvature="0" /><path
         id="path71"
         d="m 331.262,319.372 h -192.5 c -4.142,0 -7.5,3.358 -7.5,7.5 0,4.142 3.358,7.5 7.5,7.5 h 192.5 c 4.143,0 7.5,-3.358 7.5,-7.5 0,-4.142 -3.357,-7.5 -7.5,-7.5 z"
         style="fill:#082947"
         inkscape:connector-curvature="0" /><path
         id="path73"
         d="m 235.012,355 h -96.25 c -4.142,0 -7.5,3.358 -7.5,7.5 0,4.142 3.358,7.5 7.5,7.5 h 96.25 c 4.143,0 7.5,-3.358 7.5,-7.5 0,-4.142 -3.357,-7.5 -7.5,-7.5 z"
         style="fill:#082947"
         inkscape:connector-curvature="0" /></g><g
       id="g77" /><g
       id="g79" /><g
       id="g81" /><g
       id="g83" /><g
       id="g85" /><g
       id="g87" /><g
       id="g89" /><g
       id="g91" /><g
       id="g93" /><g
       id="g95" /><g
       id="g97" /><g
       id="g99" /><g
       id="g101" /><g
       id="g103" /><g
       id="g105" /></g><path
     style="fill:#ffa733;stroke-width:0.75067312"
     d="m 301.14573,306.44612 -22.58775,22.58775 V 272.17038 254.69997 237.22955 126.62913 c 0,-9.6484 -7.82202,-17.47041 -17.47041,-17.47041 -9.64841,0 -17.47042,7.82201 -17.47042,17.47041 v 110.60193 17.47041 17.47041 56.86199 l -22.58776,-22.58775 c -6.82136,-6.82288 -17.88403,-6.82288 -24.70615,0 -6.82211,6.82286 -6.82287,17.88403 0,24.70615 l 52.4075,52.40824 c 0.40911,0.40762 0.83774,0.79421 1.28364,1.15979 0.20269,0.16665 0.41963,0.31303 0.62982,0.47067 0.24547,0.18391 0.48793,0.37609 0.74166,0.54649 0.25298,0.1689 0.51721,0.31679 0.7777,0.47293 0.2282,0.13662 0.45416,0.28075 0.68687,0.40611 0.26423,0.14112 0.53898,0.26349 0.81148,0.3911 0.24471,0.1156 0.48718,0.23871 0.73715,0.3423 0.26199,0.1081 0.53224,0.19668 0.80097,0.29201 0.27024,0.0969 0.53899,0.20119 0.81298,0.28526 0.26424,0.0788 0.53673,0.13963 0.80622,0.20719 0.28451,0.0713 0.56602,0.15164 0.85277,0.20869 0.30627,0.0608 0.61931,0.0976 0.93084,0.14187 0.25372,0.0361 0.5052,0.0849 0.75968,0.1096 0.56751,0.0555 1.14252,0.087 1.72505,0.087 0.58252,0 1.15528,-0.0315 1.72279,-0.087 0.26199,-0.0255 0.51946,-0.0743 0.78145,-0.11259 0.30252,-0.0442 0.60879,-0.0788 0.90606,-0.13888 0.29727,-0.0585 0.59078,-0.14113 0.8843,-0.21544 0.25822,-0.0653 0.51946,-0.12236 0.77319,-0.19894 0.28676,-0.0863 0.56825,-0.19592 0.85126,-0.29801 0.25373,-0.0923 0.5127,-0.17491 0.76044,-0.2785 0.26423,-0.1096 0.52096,-0.23872 0.78069,-0.36257 0.25748,-0.12237 0.51796,-0.23646 0.77019,-0.37009 0.24698,-0.13287 0.48569,-0.28526 0.72816,-0.43089 0.24696,-0.14788 0.49995,-0.28901 0.73866,-0.44815 0.26649,-0.1779 0.52097,-0.37833 0.77995,-0.57276 0.19668,-0.14788 0.4031,-0.28751 0.59378,-0.44364 0.44589,-0.36708 0.87604,-0.75368 1.28591,-1.16205 l 52.40824,-52.40824 c 6.82286,-6.82136 6.82286,-17.88404 0,-24.70615 -6.82212,-6.82438 -17.88404,-6.82512 -24.70691,-10e-4 z"
     id="path6"
     inkscape:connector-curvature="0" /><path
     style="fill:#ff7956;stroke-width:0.75067312"
     d="m 243.61715,126.62913 v 110.60193 17.47041 17.47041 56.86199 l -22.58776,-22.58775 c -6.82136,-6.82288 -17.88403,-6.82288 -24.70615,0 -6.82287,6.82136 -6.82287,17.88403 0,24.70615 l 52.4075,52.40824 c 0.40911,0.40762 0.83774,0.79421 1.28364,1.15979 0.20269,0.16665 0.41963,0.31303 0.62982,0.47067 0.24547,0.18391 0.48793,0.37609 0.74166,0.54649 0.25298,0.1674 0.51721,0.31679 0.7777,0.47293 0.2282,0.13662 0.45416,0.28075 0.68687,0.40611 0.26423,0.14112 0.53898,0.26349 0.81148,0.3911 0.24471,0.1156 0.48718,0.23871 0.73715,0.3423 0.26199,0.1081 0.53224,0.19668 0.80097,0.29352 0.27024,0.0969 0.53899,0.20118 0.81298,0.28525 0.26574,0.0788 0.53673,0.13963 0.80622,0.2072 0.28451,0.072 0.56602,0.15163 0.85277,0.20868 0.30627,0.0608 0.61931,0.0976 0.93084,0.14187 0.25372,0.0361 0.5052,0.0849 0.75968,0.1096 0.56751,0.0555 1.14252,0.087 1.72505,0.087 v -279.5243 c -9.64841,0 -17.47042,7.82201 -17.47042,17.47041 z"
     id="path8"
     inkscape:connector-curvature="0" /></svg>